<svg xmlns="http://www.w3.org/2000/svg" width="34" height="34" viewBox="0 0 34 34">
    <path fill="#9CA1B3" fill-rule="evenodd" d="M16.28 23.902a.79.79 0 0 0 .331.201 1.22 1.22 0 0 0 .747 0 .79.79 0 0 0 .33-.2l4.538-5.487a.976.976 0 0 0 .258-.674.877.877 0 0 0-.258-.647.877.877 0 0 0-.646-.258.877.877 0 0 0-.647.258l-3.015 3.648V6.727a.883.883 0 0 0-.273-.646.883.883 0 0 0-.646-.273.883.883 0 0 0-.646.273.883.883 0 0 0-.273.646v14.045l-3.045-3.677a.877.877 0 0 0-.646-.258.877.877 0 0 0-.646.258.877.877 0 0 0-.259.647c0 .258.087.483.259.674l4.538 5.486zM29.75 0H4.25C3.077 0 2.075.415 1.245 1.245.415 2.075 0 3.077 0 4.25v25.5c0 1.173.415 2.175 1.245 3.005.83.83 1.832 1.245 3.005 1.245h25.5c1.173 0 2.175-.415 3.005-1.245.83-.83 1.245-1.832 1.245-3.005V4.25c0-1.173-.415-2.175-1.245-3.005C31.925.415 30.923 0 29.75 0zM31 29c0 .542-.198 1.01-.594 1.406A1.922 1.922 0 0 1 29 31H5c-.542 0-1.01-.198-1.406-.594A1.922 1.922 0 0 1 3 29V5c0-.542.198-1.01.594-1.406A1.922 1.922 0 0 1 5 3h24c.542 0 1.01.198 1.406.594.396.396.594.864.594 1.406v24zm-5-3H8a.961.961 0 0 0-.703.297A.961.961 0 0 0 7 27c0 .27.099.505.297.703A.961.961 0 0 0 8 28h18c.27 0 .505-.099.703-.297A.961.961 0 0 0 27 27a.961.961 0 0 0-.297-.703A.961.961 0 0 0 26 26z"/>
</svg>
